<svg width="167" height="169" viewBox="0 0 167 169" fill="none" xmlns="http://www.w3.org/2000/svg">
<g clip-path="url(#clip0_4_4)">
<circle cx="82.5" cy="84.5" r="84" fill="#9D79FF" stroke="#926AFF"/>
<circle cx="83" cy="84" r="73.5" fill="#F7F7F7" stroke="#926AFF"/>
<path d="M132.5 86.5C132.5 79.7 126.833 78 124 78H49H40.5C33.7 78 32 83.6667 32 86.5V115.5C32 116.3 32.6667 116.5 33 116.5H39C39.8 116.5 40 115.833 40 115.5V108C40 107.2 40.6667 107 41 107H124C124.8 107 125 107.667 125 108V115C125 115.8 125.667 116 126 116H132C132.8 116 133 115.333 133 115C132.833 108.333 132.5 93.3 132.5 86.5Z" fill="#9D79FF" stroke="#926AFF"/>
<path d="M51 73H42V59C42 53 46.3333 51.5 48.5 51.5H116.5C121.7 51.5 123 55.8333 123 58V73H114V66C114 62.8 111.333 62 110 62H91C87.8 62 87 64.6667 87 66V73H79V66C79 62.8 76.3333 62 75 62H55C51.8 62 51 64.6667 51 66V73Z" fill="#9D79FF" stroke="#926AFF"/>
</g>
<defs>
<clipPath id="clip0_4_4">
<rect width="167" height="169" fill="white"/>
</clipPath>
</defs>
</svg>
