<svg width="173" height="171" viewBox="0 0 173 171" fill="none" xmlns="http://www.w3.org/2000/svg">
<circle cx="87" cy="86" r="83.5" fill="#FF0101" stroke="#FF0101"/>
<circle cx="87.5" cy="86.5" r="74" fill="white" stroke="#FF0101"/>
<path d="M63.1907 77.1314H55.6907C55.491 75.7336 55.6907 72.1314 53.6907 70.6315C52.7551 69.4696 50.8727 69.1315 49.6907 69.1315C47.6953 69.1315 45.6907 69.6315 44.6907 72.6314C44.5325 73.1058 44.6907 76.6314 44.6907 77.1314C44.6907 80.8601 51.707 83.3035 54.1907 84.1314C58.1647 85.7873 61.3767 86.8987 63.1907 91.1314C63.9574 92.9205 65.2443 99.4665 62.6907 103.631C60.8735 106.595 58.6287 107.715 55.6907 109.131C52.2922 110.77 46.6907 110.131 46.6907 110.131C46.6907 110.131 42.4617 109.552 40.1907 107.631C38.0403 105.813 36.5744 104.305 35.6907 101.631C34.8917 99.2141 34.8762 95.6313 35.1907 95.1314C35.3237 94.9199 42.9401 95.0061 43.1907 95.1314C43.4412 95.2567 43.1907 99.1314 43.1907 99.1314C43.1907 99.1314 44.2423 100.817 45.1907 101.631C46.0542 102.373 46.6133 102.763 47.6907 103.131C49.3536 103.7 51.6907 103.131 52.6907 102.631C53.6907 102.131 53.9758 101.564 54.6907 100.26C55.7641 98.3024 55.9399 96.7344 55.1907 94.6313C54.5419 92.8105 53.7758 92.2376 52.1907 91.1314C49.8102 89.4702 47.7483 90.0042 45.1907 88.6314C42.6099 87.2463 41.1927 86.2692 39.1907 84.1314C37.5614 82.3917 36.9561 81.3887 36.1907 79.1315C35.3128 76.5426 35.1166 74.8113 35.6907 72.1314C36.649 67.6578 39.0474 65.072 43.1907 63.1315C46.9083 61.3903 51.6907 62.024 53.6907 62.6315C58.9817 64.2388 62.2504 67.1822 63.1907 72.6314C63.4895 74.3632 63.1907 77.1314 63.1907 77.1314Z" fill="#FF0101" stroke="#FF0101"/>
<path d="M137.191 77.1314H129.691C129.491 75.7336 129.691 72.1314 127.691 70.6315C126.755 69.4696 124.873 69.1315 123.691 69.1315C121.695 69.1315 119.691 69.6315 118.691 72.6314C118.533 73.1058 118.691 76.6314 118.691 77.1314C118.691 80.8601 125.707 83.3035 128.191 84.1314C132.165 85.7873 135.377 86.8987 137.191 91.1314C137.957 92.9205 139.244 99.4665 136.691 103.631C134.873 106.595 132.629 107.715 129.691 109.131C126.292 110.77 120.691 110.131 120.691 110.131C120.691 110.131 116.462 109.552 114.191 107.631C112.04 105.813 110.574 104.305 109.691 101.631C108.892 99.2141 108.876 95.6313 109.191 95.1314C109.324 94.9199 116.94 95.0061 117.191 95.1314C117.441 95.2567 117.191 99.1314 117.191 99.1314C117.191 99.1314 118.242 100.817 119.191 101.631C120.054 102.373 120.613 102.763 121.691 103.131C123.354 103.7 125.691 103.131 126.691 102.631C127.691 102.131 127.976 101.564 128.691 100.26C129.764 98.3024 129.94 96.7344 129.191 94.6313C128.542 92.8105 127.776 92.2376 126.191 91.1314C123.81 89.4702 121.748 90.0042 119.191 88.6314C116.61 87.2463 115.193 86.2692 113.191 84.1314C111.561 82.3917 110.956 81.3887 110.191 79.1315C109.313 76.5426 109.117 74.8113 109.691 72.1314C110.649 67.6578 113.047 65.072 117.191 63.1315C120.908 61.3903 125.691 62.024 127.691 62.6315C132.982 64.2388 136.25 67.1822 137.191 72.6314C137.489 74.3632 137.191 77.1314 137.191 77.1314Z" fill="#FF0101" stroke="#FF0101"/>
<path d="M89 62C87.0723 61.6891 85.9303 61.7056 84 62C75.1965 63.3429 70.9834 71.1491 70 80C69.5 84.5 69.5 87.5 70 92C70.9451 100.506 74.219 107.84 82.5 110C85.712 110.838 87.8069 110.907 91 110C98.9245 107.748 101.09 100.188 102 92C102.5 87.5 102.5 84.5 102 80C101.042 71.382 97.5604 63.3807 89 62Z" fill="#FF0000" stroke="#FF0000"/>
<path d="M84 70.0001C80.3012 71.0727 79 78.5001 79 78.5001V95.0001C79 95.0001 80.7804 101.041 84 102C85.4971 102.446 86.5029 102.446 88 102C91.2196 101.041 93 95.0001 93 95.0001V78.5001C93 78.5001 91.6988 71.0727 88 70.0001C86.4997 69.5651 85.5003 69.5651 84 70.0001Z" fill="white" stroke="white"/>
</svg>
