<svg width="250" height="216" viewBox="0 0 250 216" fill="none" xmlns="http://www.w3.org/2000/svg">
<path d="M22.6535 160.082C22.3102 162.435 11.7979 133.178 8.71892 124.432C5.63997 115.686 1.61029 79.6908 2.03033 72.9072C15.9871 45.229 24.6975 29.8942 42.4406 3C87.1596 6.66643 121.757 10.915 133.015 16.0902C142.003 21.1623 150.507 27.8782 163.671 39.4854M22.6535 160.082C22.6535 160.082 42.7193 166.488 52.7522 167.602C62.785 168.716 74.4901 178.464 83.1295 178.464C91.7689 178.464 107.933 178.464 119.917 177.072C131.9 175.679 234.459 143.371 234.459 143.371M22.6535 160.082L46.6209 177.072C46.6209 177.072 87.5886 199.074 98.7362 205.759C109.884 212.443 115.179 213 115.179 213C115.179 213 146.114 205.759 167.573 196.568C220.524 184.592 221.639 184.592 228.049 178.464C234.459 164.817 234.459 143.371 234.459 143.371M234.459 143.371C223.666 118.099 214.283 102.933 197.672 80.9841M163.671 39.4854H143.048V61.7666H135.245V39.4854H113.786L112.113 41.435M163.671 39.4854V80.9841M163.671 39.4854H207.426M112.113 79.0345L105.425 80.9841H83.6869L74.2114 75.9708L67.5228 68.7294V57.3103L74.2114 47.8408L90.3755 39.4854H110.72L112.113 41.435M112.113 79.0345V63.4377M112.113 79.0345V80.9841H135.245V68.7294H143.048V80.9841H163.671M112.113 41.435V54.8037M112.113 54.8037H98.7362L92.3263 60.0955V63.4377L95.6706 65.9443H105.425L112.113 63.4377M112.113 54.8037V63.4377M163.671 80.9841H204.36M207.426 39.4854V52.0186M207.426 39.4854H234.459L230.279 62.3236H247L244.492 79.0345L207.426 80.9841M207.426 52.0186H187.917V55.6393H200.737V64.5517H187.917V68.7294H204.36V80.9841M207.426 52.0186V80.9841M204.36 80.9841H207.426M22.6535 132.788C37.8143 127.44 54.0527 129.074 60.2768 130.56L133.015 164.817C133.015 164.817 104.31 162.31 95.9493 156.74C87.5886 151.17 60.2768 143.093 60.2768 143.093L22.6535 132.788ZM36.588 89.618C43.4972 89.943 45.8102 93.1658 46.6209 99.366C47.4317 105.566 40.4314 110.609 34.6372 109.393C28.843 108.176 27.517 107.243 25.9978 99.366C28.5405 91.7489 30.6342 90.0691 36.588 89.618ZM121.868 114.963C114.011 115.543 111.308 118.184 109.884 127.218C109.426 136.922 113.218 138.315 121.868 138.915C130.376 138.171 132.943 135.726 133.015 127.218C132.389 116.598 129.316 114.854 121.868 114.963Z" stroke="black" stroke-width="4"/>
</svg>
