<svg width="271" height="54" viewBox="0 0 271 54" fill="none" xmlns="http://www.w3.org/2000/svg">
<path fill-rule="evenodd" clip-rule="evenodd" d="M120.758 7.1508C111.9 5.92878 107.056 5.93095 98.6275 7.1508C91.397 10.1359 87.4656 11.9898 81.0445 16.1659C80.6306 16.5314 80.2512 16.8618 79.9014 17.1665C77.0557 19.6448 76.1635 20.4218 74.4848 24.5658C73.9113 28.599 73.6996 33.4769 74.0215 37.7834C71.9316 37.5419 63.4848 37.9258 63.4848 37.9258C63.4848 37.9258 67.1011 35.4638 68.9848 33.4259C72.3063 29.8325 73.8513 25.7779 74.4848 20.9258C75.1968 15.4735 74.409 13.2282 70.9848 8.92586C66.626 3.44915 59.4848 1.42586 53.4848 1.92586C48.4848 2.92587 45.9848 3.42587 41.9848 6.42586C41.7173 6.52216 45.4848 19.4259 45.4848 19.4259C45.4848 19.5617 45.8962 19.2989 46.5641 18.8722C48.3539 17.7287 51.9863 15.4079 54.4848 16.4259C57.1973 17.5309 58.4609 19.5442 58.9848 22.4259C59.6878 26.292 54.4848 31.4259 54.4848 31.4259L41.4848 39.4259C41.4848 39.4259 44.2716 29.9719 43.4848 24.4259C42.7718 19.3994 41.0465 14.9756 37.9848 10.9258C34.9688 6.93649 32.7464 4.45512 27.9848 2.92584C23.8948 1.61227 21.1131 1.73793 16.9848 2.92584C13.0264 4.0649 10.8776 5.49347 7.98484 8.42584C4.97426 11.4777 3.83472 13.857 2.48484 17.9258C0.881505 22.7586 0.702193 25.8945 1.48484 30.9258C2.22611 35.6912 3.12036 38.5461 5.98484 42.4258C10.4012 48.4075 15.0516 52.1025 22.4848 51.9258C27.0545 51.8172 29.8125 50.6475 33.4848 47.9258C37.6093 44.8691 41.4848 39.4259 41.4848 39.4259C41.4848 39.4259 40.9848 50.9259 41.4848 50.9258C41.4848 51.4259 73.4848 52.4258 73.4848 51.9258C73.8433 51.9258 74.4587 44.7303 74.5942 40.6564C76.0909 42.6951 77.1127 43.4661 78.6195 44.6032C79.2996 45.1164 80.0785 45.7042 81.0445 46.5168C84.8365 49.0791 87.1007 50.2467 91.3518 51.9258C100.694 53.0005 105.87 52.9782 114.998 51.9258L122.274 49.8223V51.9258H147.435V38.7037H155.923V51.9258H178.357H223.5H225.952L266.272 49.8223L269 31.7921H250.811L255.358 7.1508H225.952H178.357H155.923V31.1911H147.435V7.1508H124.093L122.274 9.25432L120.758 7.1508ZM204.731 20.6735H225.952V38.7037H204.731V34.1961H218.676V24.58H204.731V20.6735ZM21.9848 17.4258C24.7576 17.543 26.0239 19.5663 27.4848 21.9258C29.0572 24.4654 29.2139 26.4477 28.9848 29.4258L28.9722 29.5906C28.7566 32.4022 28.5948 34.5138 26.4848 36.4258C25.0598 37.7172 23.9079 38.4258 21.9848 38.4258C20.0617 38.4258 18.9098 37.7172 17.4848 36.4258C15.5179 34.6433 15.3179 32.6807 15.0602 30.151C15.0361 29.9143 15.0114 29.6727 14.9848 29.4258C14.6681 26.488 14.4865 24.4727 15.9848 21.9258C17.47 19.4014 19.0585 17.3022 21.9848 17.4258ZM107.722 23.6785C113.405 22.8677 116.591 22.9007 122.274 23.6785V32.9941L114.998 35.6986C110.854 36.5851 108.531 36.56 104.387 35.6986C102.517 35.0899 101.754 34.4639 100.75 32.9941C100.36 31.5859 100.34 30.7964 100.75 29.3881C103.129 26.4884 104.674 25.2732 107.722 23.6785Z" fill="white"/>
<path d="M178.357 7.1508H155.923V31.1911H147.435V7.1508H124.093L122.274 9.25432M178.357 7.1508V51.9258M178.357 7.1508H225.952M122.274 49.8223L114.998 51.9258C105.87 52.9782 100.694 53.0005 91.3518 51.9258C87.1007 50.2467 84.8365 49.0791 81.0445 46.5168C80.0785 45.7042 79.2996 45.1164 78.6195 44.6032C77.1127 43.4661 76.0909 42.6951 74.5942 40.6564M122.274 49.8223V32.9941M122.274 49.8223V51.9258H147.435V38.7037H155.923V51.9258H178.357M122.274 9.25432L120.758 7.1508C111.9 5.92878 107.056 5.93095 98.6275 7.1508C91.397 10.1359 87.4656 11.9898 81.0445 16.1659C80.6306 16.5314 80.2512 16.8618 79.9014 17.1665C77.0557 19.6448 76.1635 20.4218 74.4848 24.5658C73.9113 28.599 73.6996 33.4769 74.0215 37.7834M122.274 9.25432V23.6785M122.274 23.6785C116.591 22.9007 113.405 22.8677 107.722 23.6785C104.674 25.2732 103.129 26.4884 100.75 29.3881C100.34 30.7964 100.36 31.5859 100.75 32.9941C101.754 34.4639 102.517 35.0899 104.387 35.6986C108.531 36.56 110.854 36.5851 114.998 35.6986L122.274 32.9941M122.274 23.6785V32.9941M178.357 51.9258H223.5H225.952M225.952 7.1508V20.6735M225.952 7.1508H255.358L250.811 31.7921H269L266.272 49.8223L225.952 51.9258M225.952 20.6735H204.731V24.58H218.676V34.1961H204.731V38.7037H225.952V20.6735ZM225.952 20.6735V51.9258M41.4848 39.4259C41.4848 39.4259 40.9848 50.9259 41.4848 50.9258C41.4848 51.4259 73.4848 52.4258 73.4848 51.9258C73.8433 51.9258 74.4587 44.7303 74.5942 40.6564M41.4848 39.4259L54.4848 31.4259C54.4848 31.4259 59.6878 26.292 58.9848 22.4259C58.4609 19.5442 57.1973 17.5309 54.4848 16.4259C51.9863 15.4079 48.3539 17.7287 46.5641 18.8722C45.8962 19.2989 45.4848 19.5617 45.4848 19.4259C45.4848 19.4259 41.7173 6.52216 41.9848 6.42586C45.9848 3.42587 48.4848 2.92587 53.4848 1.92586C59.4848 1.42586 66.626 3.44915 70.9848 8.92586C74.409 13.2282 75.1968 15.4735 74.4848 20.9258C73.8513 25.7779 72.3063 29.8325 68.9848 33.4259C67.1011 35.4638 63.4848 37.9258 63.4848 37.9258C63.4848 37.9258 71.9316 37.5419 74.0215 37.7834M41.4848 39.4259C41.4848 39.4259 37.6093 44.8691 33.4848 47.9258C29.8125 50.6475 27.0545 51.8172 22.4848 51.9258C15.0516 52.1025 10.4012 48.4075 5.98484 42.4258C3.12036 38.5461 2.22611 35.6912 1.48484 30.9258C0.702193 25.8945 0.881505 22.7586 2.48484 17.9258C3.83472 13.857 4.97426 11.4777 7.98484 8.42584C10.8776 5.49347 13.0264 4.0649 16.9848 2.92584C21.1131 1.73793 23.8948 1.61227 27.9848 2.92584C32.7464 4.45512 34.9688 6.93649 37.9848 10.9258C41.0465 14.9756 42.7718 19.3994 43.4848 24.4259C44.2716 29.9719 41.4848 39.4259 41.4848 39.4259ZM28.9848 29.4258C29.2139 26.4477 29.0572 24.4654 27.4848 21.9258C26.0239 19.5663 24.7576 17.543 21.9848 17.4258C19.0585 17.3022 17.47 19.4014 15.9848 21.9258C14.4865 24.4727 14.6681 26.488 14.9848 29.4258C15.0114 29.6727 15.0361 29.9143 15.0602 30.151C15.3179 32.6807 15.5179 34.6433 17.4848 36.4258C18.9098 37.7172 20.0617 38.4258 21.9848 38.4258C23.9079 38.4258 25.0598 37.7172 26.4848 36.4258C28.5948 34.5138 28.7566 32.4022 28.9722 29.5906M28.9848 29.4258C28.9806 29.481 28.9764 29.5359 28.9722 29.5906M28.9848 29.4258L28.9722 29.5906M74.5942 40.6564C74.6477 39.0478 74.6264 37.9259 74.4848 37.9258C74.4848 37.864 74.3165 37.8175 74.0215 37.7834M74.5942 40.6564C74.4882 40.512 74.3799 40.3613 74.2688 40.2037C74.1657 39.425 74.0836 38.6148 74.0215 37.7834" stroke="black" stroke-width="2"/>
</svg>
